# ProBuilder 4.0.5
# https://unity3d.com/unity/features/worldbuilding/probuilder
# 8/22/2019 12:43:55 PM

mtllib ./ChurchFigure.mtl
o ChurchFigure

g Church
v -0.1440482 -1.168786 0.7097861
v -0.5 -1.168786 0.7097861
v -0.5 -0.4462822 0.7097861
v -0.1440482 -0.4462822 0.7097861
v 0.5 -1.168786 0.7097861
v 0.1779759 -1.168786 0.7097861
v 0.1779759 -0.4462822 0.7097861
v 0.5 -0.4462822 0.7097861
v 0.1779759 -1.168786 0.8449507
v -0.1440482 -1.168786 0.8449507
v -0.1440482 -0.1687858 0.8449507
v 0.1779759 -0.1687858 0.8449507
v -0.5 -0.4462822 0.5370157
v -0.5 -0.4462822 -0.4629843
v 0.5 -0.4462822 -0.4629843
v 0.5 -0.4462822 0.5370157
v 0.1779759 -0.4462822 0.5370157
v -0.1440482 -0.4462822 0.5370157
v -0.1440482 -1.168786 0.5370157
v 0.1779759 -1.168786 0.5370157
v 0.5 -1.168786 0.5370157
v 0.5 -1.168786 -0.4629843
v -0.5 -1.168786 -0.4629843
v -0.5 -1.168786 0.5370157
v -0.00258863 1.168786 0.6722861
v 0.03651646 1.168786 0.6722861
v -0.00258863 1.168786 0.6932666
v 0.03651646 1.168786 0.6932666
v -0.00258863 1.168786 0.7096804
v 0.03651646 1.168786 0.7096804
v -0.1440482 0.1499875 0.5370157
v 0.1779759 0.1499875 0.5370157
v -0.1440482 0.1499875 0.7097861
v 0.1779759 0.1499875 0.7097861
v -0.1440482 0.1499875 0.8449507
v 0.1779759 0.1499875 0.8449507
v -0.1376077 0.1638887 0.5431744
v 0.1715354 0.1638887 0.5431744
v -0.1376077 0.1638887 0.709034
v 0.1715354 0.1638887 0.709034
v -0.1376077 0.1638887 0.838792
v 0.1715354 0.1638887 0.838792
v -0.1376077 0.453645 0.5431744
v 0.1715354 0.453645 0.5431744
v -0.1376077 0.453645 0.709034
v 0.1715354 0.453645 0.709034
v -0.1376077 0.453645 0.838792
v 0.1715354 0.453645 0.838792
v -0.1499734 0.4839435 0.5313497
v 0.1839011 0.4839435 0.5313497
v -0.1499734 0.4839435 0.710478
v 0.1839011 0.4839435 0.710478
v -0.1499734 0.4839435 0.8506168
v 0.1839011 0.4839435 0.8506168
v -0.1082391 0.6687858 0.5712581
v 0.1421668 0.6687858 0.5712581
v -0.1082391 0.6687858 0.7056044
v 0.1421668 0.6687858 0.7056044
v -0.1082391 0.6687858 0.8107083
v 0.1421668 0.6687858 0.8107083
v -0.5 -0.662349 -0.4629843
v -0.5 -1.168786 -0.8506168
v 0.5 -1.168786 -0.8506168
v 0.5 -0.662349 -0.8506168
v -0.5 -0.662349 -0.8506168
v 0.5 -0.662349 -0.4629843
v -0.5 -0.4537859 0.7057269
v -0.5 -0.4537859 -0.4629843
v -0.5 -0.4211121 0.7057269
v -0.5 -0.4211121 -0.4629843
v 0.5 -0.4537859 -0.4629843
v 0.5 -0.4537859 0.7057269
v 0.5 -0.4211121 -0.4629843
v 0.5 -0.4211121 0.7057269
v 0 0.06566381 0.7057269
v 0 0.06566381 -0.4629843
v -0.5 -0.6717858 -0.451273
v -0.5 -0.6717858 -0.8382632
v -0.5 -0.639112 -0.451273
v -0.5 -0.639112 -0.8382632
v 0.5 -0.6717858 -0.8382632
v 0.5 -0.6717858 -0.451273
v 0.5 -0.639112 -0.8382632
v 0.5 -0.639112 -0.451273
v 0 -0.1523361 -0.451273
v 0 -0.1523361 -0.8382632

vt -0.1440482 -0.6717858
vt -0.5 -0.6717858
vt -0.5 0.05071783
vt -0.1440482 0.05071783
vt 0.5 -0.6717858
vt 0.1779759 -0.6717858
vt 0.1779759 0.05071783
vt 0.5 0.05071783
vt -0.1440482 0.3282142
vt 0.1779759 0.3282142
vt 0.5 -0.6199842
vt 0.5 -1.619984
vt -0.5 -1.619984
vt -0.5 -0.6199842
vt -0.1779759 -0.6199842
vt 0.1440482 -0.6199842
vt -0.1440482 -0.6199842
vt 0.1779759 -0.6199842
vt 0.5 -0.4472137
vt 0.1779759 -0.4472137
vt 0.00258863 -0.4847139
vt -0.03651646 -0.4847139
vt 0.00258863 -0.4637334
vt -0.03651646 -0.4637334
vt 0.6199841 0.05071783
vt 0.6199841 -0.6717858
vt 0.4472137 0.05071783
vt 0.4472137 -0.6717858
vt -0.1779759 -0.4472137
vt -0.5 -0.4472137
vt -0.1440482 -0.4472137
vt 0.1440482 -0.4472137
vt -0.6199841 -0.6717858
vt -0.6199841 0.05071783
vt -0.4472137 -0.6717858
vt -0.4472137 0.05071783
vt 0.1779759 -0.3120493
vt -0.1440482 -0.3120493
vt -0.3120493 -0.6717858
vt -0.3120493 0.3282142
vt 0.3120493 0.3282142
vt 0.3120493 -0.6717858
vt 0.00258863 -0.4473196
vt -0.03651646 -0.4473196
vt 0.1440482 0.0507178
vt -0.1779759 0.0507178
vt 0.1440482 0.6469874
vt -0.1779759 0.6469874
vt -0.4472137 0.6469874
vt -0.6199841 0.6469874
vt 0.6199841 0.6469874
vt 0.4472137 0.6469874
vt -0.3120493 0.6469874
vt 0.3120493 0.6469874
vt 0.1779759 0.6469874
vt -0.1440482 0.6469874
vt 0.1440482 0.3404028
vt -0.1779759 0.3404028
vt 0.1376077 0.3556072
vt -0.1715354 0.3556072
vt -0.4472137 0.526488
vt -0.6199841 0.526488
vt -0.4479658 0.5418087
vt -0.6138254 0.5418087
vt 0.6199841 0.5122262
vt 0.4472137 0.5122262
vt 0.6138254 0.527547
vt 0.4479658 0.527547
vt -0.3120492 0.526488
vt -0.3182079 0.5418087
vt 0.3120492 0.5122262
vt 0.3182079 0.527547
vt 0.1779759 0.7179329
vt -0.1440482 0.7179329
vt 0.1715354 0.7331374
vt -0.1376077 0.7331374
vt 0.1376077 0.6608887
vt -0.1715354 0.6608887
vt 0.1376077 0.950645
vt -0.1715354 0.950645
vt -0.447966 0.6608887
vt -0.6138256 0.6608887
vt -0.447966 0.950645
vt -0.6138256 0.950645
vt 0.6138256 0.6608887
vt 0.447966 0.6608887
vt 0.6138256 0.950645
vt 0.447966 0.950645
vt -0.318208 0.6608887
vt -0.318208 0.950645
vt 0.318208 0.6608887
vt 0.318208 0.950645
vt 0.1715354 0.6608887
vt -0.1376077 0.6608887
vt 0.1715354 0.950645
vt -0.1376077 0.950645
vt 0.1376077 1.108757
vt -0.1715354 1.108757
vt 0.1499734 1.141282
vt -0.1839011 1.141282
vt -0.4479659 0.9321606
vt -0.6138255 0.9321606
vt -0.4465219 0.9648854
vt -0.6256502 0.9648854
vt 0.6138255 0.9449807
vt 0.4479659 0.9449807
vt 0.6256502 0.9777054
vt 0.4465219 0.9777054
vt -0.3182079 0.9321606
vt -0.3063832 0.9648854
vt 0.3182079 0.9449807
vt 0.3063832 0.9777054
vt 0.1715354 0.7699002
vt -0.1376077 0.7699002
vt 0.1839011 0.8024245
vt -0.1499734 0.8024245
vt 0.1499734 0.8268108
vt -0.1839011 0.8268108
vt 0.1082391 1.015913
vt -0.1421668 1.015913
vt -0.4465219 0.9238271
vt -0.6256502 0.9238271
vt -0.4513956 1.113322
vt -0.5857418 1.113322
vt 0.6256502 0.916355
vt 0.4465219 0.916355
vt 0.5857418 1.10585
vt 0.4513956 1.10585
vt -0.3063832 0.9238272
vt -0.3462916 1.113322
vt 0.3063832 0.916355
vt 0.3462916 1.10585
vt 0.1839011 1.02351
vt -0.1499734 1.02351
vt 0.1421668 1.212611
vt -0.1082391 1.212611
vt 0.1082391 1.026685
vt -0.1421668 1.026685
vt 0.00258863 1.536789
vt -0.03651646 1.536789
vt -0.4513956 1.118224
vt -0.5857418 1.118224
vt -0.4637334 1.629264
vt -0.4847139 1.629264
vt 0.5857418 1.11121
vt 0.4513956 1.11121
vt 0.4847139 1.62225
vt 0.4637334 1.62225
vt -0.3462915 1.118224
vt -0.4473194 1.629264
vt 0.3462915 1.11121
vt 0.4473194 1.62225
vt 0.1421668 1.211277
vt -0.1082391 1.211277
vt 0.03651646 1.721382
vt -0.00258863 1.721382
vt -1.619984 -0.6717858
vt -1.619984 -0.165349
vt -1.619984 0.05071783
vt -0.5 -0.165349
vt 0.5 -0.165349
vt 1.619984 -0.6717858
vt 1.619984 0.05071783
vt 1.619984 -0.165349
vt 2.007617 -0.6717858
vt 2.007617 -0.165349
vt -0.5 -2.007617
vt 0.5 -2.007617
vt -2.007617 -0.165349
vt -2.007617 -0.6717858
vt -0.451273 -0.6717858
vt -0.451273 -0.6391121
vt -1.619984 -0.6391121
vt 0.451273 -0.6717858
vt 1.619984 -0.6391121
vt 0.451273 -0.6391121
vt 0.5 -0.451273
vt -0.5 -0.451273
vt -0.5 -0.639112
vt 0 -0.1523362
vt 0.5 -0.639112
vt 0.4999999 -0.671786
vt 0.5 -0.6391121
vt -0.8268756 -0.451273
vt -0.3268756 -0.451273
vt -0.3268756 -1.619984
vt -0.8268756 -1.619984
vt 0.6103569 -0.451273
vt 1.110357 -0.451273
vt 1.110357 -1.619984
vt 0.6103569 -1.619984
vt -0.8382632 -0.6717858
vt -0.8382632 -0.639112
vt 0.8382632 -0.6717858
vt 0.8382632 -0.639112
vt 0.5 -0.8382632
vt -0.5 -0.8382632
vt -0.3268756 -0.8382633
vt -0.8268756 -0.8382633
vt 1.110357 -0.8382634
vt 0.610357 -0.8382633

vn 0 0 1
vn 0 1 0
vn 0 -1 0
vn 1 0 0
vn -1 0 0
vn 0 0 -1
vn 0 0.4050608 -0.9142898
vn -0.9073483 0.4203796 0
vn 0.9073491 0.420378 0
vn 0 0.4050608 0.9142898
vn 0 -0.3635674 -0.9315679
vn -0.9258586 -0.3778701 0
vn 0.9258583 -0.377871 0
vn 0 -0.3635674 0.9315679
vn 0 0.2110423 -0.977477
vn -0.9754458 0.2202395 0
vn 0.9754458 0.2202393 0
vn 0 0.2110423 0.977477
vn 0 0.1980534 -0.9801912
vn -0.9783968 0.2067361 0
vn 0.9783967 0.2067359 0
vn 0 0.1980534 0.9801912
vn 0.697568 0.7165186 0
vn -0.697568 0.7165186 0

g Church
usemtl ProBuilderDefault
f 18/16/2 14/12/2 13/11/2
f 14/12/2 18/16/2 15/13/2
f 15/13/2 18/16/2 17/15/2
f 17/15/2 16/14/2 15/13/2
f 22/12/3 21/11/3 20/18/3
f 20/18/3 19/17/3 22/12/3
f 22/12/3 19/17/3 23/13/3
f 24/14/3 23/13/3 19/17/3
f 61/158/5 23/157/5 24/33/5
f 13/34/5 61/158/5 24/33/5
f 13/34/5 14/159/5 61/158/5
f 66/164/4 15/163/4 16/25/4
f 21/26/4 66/164/4 16/25/4
f 21/26/4 22/162/4 66/164/4
f 75/180/1 72/5/1 74/181/1
f 72/5/1 75/180/1 67/2/1
f 75/180/1 69/179/1 67/2/1
f 68/182/6 70/183/6 76/180/6
f 68/182/6 76/180/6 71/2/6
f 73/179/6 71/2/6 76/180/6
f 85/180/1 82/5/1 84/181/1
f 82/5/1 85/180/1 77/2/1
f 85/180/1 79/179/1 77/2/1
f 78/5/6 80/181/6 86/180/6
f 78/5/6 86/180/6 81/2/6
f 83/179/6 81/2/6 86/180/6
f 3/3/1 2/2/1 1/1/1
f 1/1/1 4/4/1 3/3/1
f 7/7/1 6/6/1 5/5/1
f 5/5/1 8/8/1 7/7/1
f 11/9/1 10/1/1 9/6/1
f 9/6/1 12/10/1 11/9/1
f 6/20/3 20/18/3 21/11/3
f 21/11/3 5/19/3 6/20/3
f 28/24/2 26/22/2 25/21/2
f 25/21/2 27/23/2 28/24/2
f 5/28/4 21/26/4 16/25/4
f 16/25/4 8/27/4 5/28/4
f 8/30/2 16/14/2 17/15/2
f 17/15/2 7/29/2 8/30/2
f 1/31/3 19/17/3 20/18/3
f 20/18/3 6/20/3 1/31/3
f 4/32/2 18/16/2 13/11/2
f 13/11/2 3/19/2 4/32/2
f 2/30/3 24/14/3 19/17/3
f 19/17/3 1/31/3 2/30/3
f 3/36/5 13/34/5 24/33/5
f 24/33/5 2/35/5 3/36/5
f 10/38/3 1/31/3 6/20/3
f 6/20/3 9/37/3 10/38/3
f 11/40/5 4/36/5 1/35/5
f 1/35/5 10/39/5 11/40/5
f 9/42/4 6/28/4 7/27/4
f 7/27/4 12/41/4 9/42/4
f 30/44/2 28/24/2 27/23/2
f 27/23/2 29/43/2 30/44/2
f 32/48/6 17/46/6 18/45/6
f 18/45/6 31/47/6 32/48/6
f 31/50/5 18/34/5 4/36/5
f 4/36/5 33/49/5 31/50/5
f 34/52/4 7/27/4 17/25/4
f 17/25/4 32/51/4 34/52/4
f 33/49/5 4/36/5 11/40/5
f 11/40/5 35/53/5 33/49/5
f 36/54/4 12/41/4 7/27/4
f 7/27/4 34/52/4 36/54/4
f 35/56/1 11/9/1 12/10/1
f 12/10/1 36/55/1 35/56/1
f 38/60/7 32/58/7 31/57/7
f 31/57/7 37/59/7 38/60/7
f 37/64/8 31/62/8 33/61/8
f 33/61/8 39/63/8 37/64/8
f 40/68/9 34/66/9 32/65/9
f 32/65/9 38/67/9 40/68/9
f 39/63/8 33/61/8 35/69/8
f 35/69/8 41/70/8 39/63/8
f 42/72/9 36/71/9 34/66/9
f 34/66/9 40/68/9 42/72/9
f 41/76/10 35/74/10 36/73/10
f 36/73/10 42/75/10 41/76/10
f 44/80/6 38/78/6 37/77/6
f 37/77/6 43/79/6 44/80/6
f 43/84/5 37/82/5 39/81/5
f 39/81/5 45/83/5 43/84/5
f 46/88/4 40/86/4 38/85/4
f 38/85/4 44/87/4 46/88/4
f 45/83/5 39/81/5 41/89/5
f 41/89/5 47/90/5 45/83/5
f 48/92/4 42/91/4 40/86/4
f 40/86/4 46/88/4 48/92/4
f 47/96/1 41/94/1 42/93/1
f 42/93/1 48/95/1 47/96/1
f 50/100/11 44/98/11 43/97/11
f 43/97/11 49/99/11 50/100/11
f 49/104/12 43/102/12 45/101/12
f 45/101/12 51/103/12 49/104/12
f 52/108/13 46/106/13 44/105/13
f 44/105/13 50/107/13 52/108/13
f 51/103/12 45/101/12 47/109/12
f 47/109/12 53/110/12 51/103/12
f 54/112/13 48/111/13 46/106/13
f 46/106/13 52/108/13 54/112/13
f 53/116/14 47/114/14 48/113/14
f 48/113/14 54/115/14 53/116/14
f 56/120/15 50/118/15 49/117/15
f 49/117/15 55/119/15 56/120/15
f 55/124/16 49/122/16 51/121/16
f 51/121/16 57/123/16 55/124/16
f 58/128/17 52/126/17 50/125/17
f 50/125/17 56/127/17 58/128/17
f 57/123/16 51/121/16 53/129/16
f 53/129/16 59/130/16 57/123/16
f 60/132/17 54/131/17 52/126/17
f 52/126/17 58/128/17 60/132/17
f 59/136/18 53/134/18 54/133/18
f 54/133/18 60/135/18 59/136/18
f 26/140/19 56/138/19 55/137/19
f 55/137/19 25/139/19 26/140/19
f 25/144/20 55/142/20 57/141/20
f 57/141/20 27/143/20 25/144/20
f 28/148/21 58/146/21 56/145/21
f 56/145/21 26/147/21 28/148/21
f 27/143/20 57/141/20 59/149/20
f 59/149/20 29/150/20 27/143/20
f 30/152/21 60/151/21 58/146/21
f 58/146/21 28/148/21 30/152/21
f 29/156/22 59/154/22 60/153/22
f 60/153/22 30/155/22 29/156/22
f 65/161/6 64/160/6 63/2/6
f 63/2/6 62/5/6 65/161/6
f 14/8/6 15/3/6 66/160/6
f 66/160/6 61/161/6 14/8/6
f 64/166/4 66/164/4 22/162/4
f 22/162/4 63/165/4 64/166/4
f 65/168/2 61/12/2 66/13/2
f 66/13/2 64/167/2 65/168/2
f 62/170/5 23/157/5 61/158/5
f 61/158/5 65/169/5 62/170/5
f 63/168/3 22/12/3 23/13/3
f 23/13/3 62/167/3 63/168/3
f 70/173/5 68/157/5 67/171/5
f 67/171/5 69/172/5 70/173/5
f 74/176/4 72/174/4 71/162/4
f 71/162/4 73/175/4 74/176/4
f 67/178/3 68/13/3 71/12/3
f 71/12/3 72/177/3 67/178/3
f 74/184/23 73/187/23 76/186/23
f 76/186/23 75/185/23 74/184/23
f 75/188/24 76/191/24 70/190/24
f 70/190/24 69/189/24 75/188/24
f 80/193/5 78/192/5 77/171/5
f 77/171/5 79/172/5 80/193/5
f 84/176/4 82/174/4 81/194/4
f 81/194/4 83/195/4 84/176/4
f 77/178/3 78/197/3 81/196/3
f 81/196/3 82/177/3 77/178/3
f 84/184/23 83/199/23 86/198/23
f 86/198/23 85/185/23 84/184/23
f 85/188/24 86/201/24 80/200/24
f 80/200/24 79/189/24 85/188/24

