# ProBuilder 4.0.5
# https://unity3d.com/unity/features/worldbuilding/probuilder
# 8/22/2019 1:10:43 PM

mtllib ./Pleasurehouse.mtl
o Pleasurehouse

g Pleasurehouse
v -0.03796011 0.07650214 -0.2386125
v -0.589255 0.07650214 -0.2386075
v -0.03796011 0.3517599 -0.2386125
v -0.589255 0.3517599 -0.2386075
v -0.5892566 0.07650214 -0.412283
v -0.03796166 0.07650214 -0.4122879
v -0.5892566 0.3517599 -0.412283
v -0.03796166 0.3517599 -0.4122879
v -0.03796095 0.5196577 -0.3254502
v -0.5892557 0.5196577 -0.3254453
v -0.03796178 0.3401616 -0.4205696
v -0.03796095 0.5473028 -0.3254502
v -0.5892557 0.5473028 -0.3254453
v -0.5892566 0.3401616 -0.4205647
v -0.03796005 0.3401616 -0.2303309
v -0.589255 0.3401616 -0.230326
v -0.00303334 0.07650214 -0.4122847
v 0.5482614 0.07650214 -0.4122863
v -0.00303334 0.3517599 -0.4122847
v 0.5482614 0.3517599 -0.4122863
v 0.5482619 0.07650214 -0.2386109
v -0.003032863 0.07650214 -0.2386093
v 0.5482619 0.3517599 -0.2386109
v -0.003032863 0.3517599 -0.2386093
v -0.003033102 0.5196577 -0.325447
v 0.5482616 0.5196577 -0.3254486
v -0.003032863 0.3401616 -0.2303276
v -0.003033102 0.5473028 -0.325447
v 0.5482616 0.5473028 -0.3254486
v 0.5482619 0.3401616 -0.2303292
v -0.0030334 0.3401616 -0.4205663
v 0.5482614 0.3401616 -0.4205679
v -0.1738958 -0.1334979 0.6157399
v -0.1738958 -0.1334974 0.8070229
v -0.1229644 -0.256457 0.6157403
v -0.1229644 -0.2564564 0.8070233
v -5.304813E-06 -0.3073884 0.6157405
v -5.304813E-06 -0.3073878 0.8070234
v 0.1229538 -0.256457 0.6157403
v 0.1229538 -0.2564564 0.8070233
v 0.1738851 -0.1334979 0.6157399
v 0.1738851 -0.1334973 0.8070229
v 0.1229538 -0.01053876 0.6157396
v 0.1229538 -0.01053822 0.8070225
v -5.304813E-06 0.04039258 0.6157394
v -5.304813E-06 0.04039311 0.8070224
v -0.1229644 -0.01053876 0.6157396
v -0.1229644 -0.01053822 0.8070226
v -5.304813E-06 -0.1334979 0.6157399
v -5.304813E-06 -0.1334974 0.8070229
v -0.03795713 0.07650214 0.4503876
v -0.5892519 0.07650214 0.4503925
v -0.03795713 0.3517599 0.4503876
v -0.5892519 0.3517599 0.4503925
v -0.5892535 0.07650214 0.2767171
v -0.03795868 0.07650214 0.2767121
v -0.5892535 0.3517599 0.2767171
v -0.03795868 0.3517599 0.2767121
v -0.03795785 0.5196577 0.3635499
v -0.5892528 0.5196577 0.3635548
v -0.03795874 0.3401616 0.2684304
v -0.03795785 0.5473028 0.3635498
v -0.5892528 0.5473028 0.3635548
v -0.5892535 0.3401616 0.2684354
v -0.03795701 0.3401616 0.4586692
v -0.5892519 0.3401616 0.4586741
v -0.00303334 0.07650214 0.2767153
v 0.5482614 0.07650214 0.2767137
v -0.00303334 0.3517599 0.2767153
v 0.5482614 0.3517599 0.2767137
v 0.5482619 0.07650214 0.4503891
v -0.003032863 0.07650214 0.4503907
v 0.5482619 0.3517599 0.4503891
v -0.003032863 0.3517599 0.4503907
v -0.003033102 0.5196577 0.363553
v 0.5482616 0.5196577 0.3635514
v -0.003032863 0.3401616 0.4586724
v -0.003033102 0.5473028 0.363553
v 0.5482616 0.5473028 0.3635514
v 0.5482619 0.3401616 0.4586708
v -0.0030334 0.3401616 0.2684337
v 0.5482614 0.3401616 0.2684321
v -0.5855762 -0.6614979 0.7674007
v -0.5855762 -0.6614979 -0.7817894
v -0.5855762 0.1120021 0.7674007
v -0.5855762 0.1120021 -0.7817894
v 0.5855802 -0.6614979 -0.7817894
v 0.5855802 -0.6614979 0.7674007
v 0.5855802 0.1120021 -0.7817894
v 0.5855802 0.1120021 0.7674007
v 2.086163E-06 0.5838107 0.7674007
v 2.086163E-06 0.5838107 -0.7817894
v 0.6414268 0.0794102 0.7674007
v 2.324581E-06 0.6614962 0.7674007
v 2.324581E-06 0.6614962 -0.7817893
v 0.6414268 0.0794102 -0.7817893
v -0.6414219 0.0794102 0.7674007
v -0.6414219 0.0794102 -0.7817893
v -4.172325E-07 0.5838124 -0.8820801
v 0.5855806 0.1120023 -0.8820801
v -2.980232E-07 0.6614979 -0.88208
v 0.6414272 0.07941043 -0.88208
v 0.5855802 0.1120021 0.8820801
v 2.145767E-06 0.5838107 0.8820801
v 0.6414268 0.07941014 0.8820801
v 2.384186E-06 0.6614962 0.8820801
v -0.5855817 0.1120052 -0.8820801
v -0.6414272 0.07941318 -0.88208
v -0.5855762 0.1120021 0.8820801
v -0.6414219 0.07941014 0.8820801

vt 1.588412 -0.6614979
vt -0.4144196 -0.6614979
vt 1.588412 0.3385021
vt -0.4144196 0.3385021
vt 0.4144191 -0.6624759
vt -1.5889 -0.6614977
vt 0.4149078 0.338502
vt -1.588411 0.3394802
vt 0.5855708 -1.008289
vt -0.4144198 -1.008293
vt 0.5855801 0.994546
vt -0.4144104 0.9945421
vt 0.008284092 -0.6614979
vt -0.9917158 -0.6614979
vt -0.9917158 0.338502
vt -0.4917158 0.9484678
vt 0.008284092 0.338502
vt 1.246184 -0.5543269
vt 0.0860973 -0.8007797
vt -0.1305834 0.2191654
vt 0.3172918 0.9645236
vt 1.029503 0.4656183
vt -1.588733 0.1418067
vt -1.588412 1.073233
vt 0.4147404 1.072541
vt 0.4144194 0.141115
vt 1.588412 0.4910129
vt 1.588412 -0.4397222
vt -0.4144199 -0.4397218
vt -0.4144192 0.4910133
vt 0.4783536 0.9357781
vt -0.02220082 0.3378431
vt 0.5019251 1.046733
vt -0.06617486 0.2985345
vt -0.07657728 -1.543157
vt -0.07657725 0.4596741
vt -0.01294348 -1.543157
vt -0.01294345 0.459674
vt -0.6727757 0.4692991
vt -0.6727758 -1.533532
vt -0.7364091 0.4692988
vt -0.7364094 -1.533532
vt 0.02218992 0.337837
vt -0.4783645 0.9357721
vt 0.06616402 0.2985284
vt -0.5019359 1.046726
vt 1.005607 0.3378268
vt 0.5050525 0.935762
vt 1.04958 0.2985181
vt 0.4814808 1.046716
vt -0.5050801 0.9357789
vt -1.005634 0.3378437
vt -0.4815085 1.046733
vt -1.049608 0.2985349
vt 0.4172511 -0.6614979
vt -1.58558 -0.6614979
vt 0.4172511 0.3385021
vt -1.58558 0.3385021
vt 1.58558 -0.6614979
vt -0.4172513 -0.6614979
vt 1.58558 0.3385021
vt -0.4172513 0.3385021
vt -0.008287817 -0.6614979
vt -1.008288 -0.6614979
vt -1.008288 0.3385021
vt -0.5082876 0.948468
vt -0.008287817 0.3385021
vt 1.262756 -0.5543268
vt 0.1026692 -0.8007802
vt -0.114012 0.219165
vt 0.3338629 0.9645235
vt 1.046074 0.4656183
vt -0.4175724 0.1487221
vt -0.4172508 1.080149
vt 1.585901 1.079457
vt 1.58558 0.1480305
vt 0.4172515 0.4840974
vt 0.4172513 -0.4466377
vt -1.585581 -0.4466374
vt -1.58558 0.4840977
vt 0.494924 0.9357781
vt -0.005630448 0.3378431
vt 0.5184956 1.046732
vt -0.04960456 0.2985345
vt -1.247738 -1.533527
vt -1.247738 0.4693043
vt -1.184104 -1.533527
vt -1.184104 0.4693043
vt 0.4983847 0.4596688
vt 0.4983847 -1.543162
vt 0.4347516 0.459669
vt 0.4347514 -1.543162
vt 0.005624682 0.3378408
vt -0.4949296 0.9357758
vt 0.04959877 0.2985322
vt -0.5185011 1.04673
vt 1.022201 0.3378384
vt 0.5216471 0.9357734
vt 1.066175 0.2985297
vt 0.4980755 1.046728
vt -0.5216516 0.9357789
vt -1.022206 0.3378437
vt -0.4980801 1.046733
vt -1.066179 0.298535
vt -0.008289516 -0.835236
vt -0.008288741 0.1647628
vt 0.3743947 -0.8352347
vt 0.3743953 0.1647641
vt 1.064749 -0.008290529
vt 1.064748 0.9917088
vt 1.447431 -0.008289605
vt 1.447431 0.9917094
vt 0.5584592 -0.008290887
vt 0.55846 0.9917081
vt 0.9411421 -0.0082919
vt 0.9411429 0.9917075
vt 0.008290052 -0.3870518
vt 0.008288622 0.6129473
vt 0.390975 -0.3870527
vt 0.3909736 0.6129464
vt -0.3743948 -0.8352351
vt -0.3743962 0.164764
vt 0.008290112 -0.835236
vt 0.008288503 0.1647628
vt -1.447432 -0.008289397
vt -1.447431 0.9917098
vt -1.064749 -0.00829041
vt -1.064748 0.9917091
vt -0.9411423 -0.008291423
vt -0.9411429 0.9917076
vt -0.5584594 -0.008290499
vt -0.5584601 0.9917085
vt -0.3909752 -0.3870527
vt -0.3909736 0.6129465
vt -0.008290052 -0.3870518
vt -0.008288383 0.6129473
vt -0.5855802 -0.6614978
vt -0.08558023 -0.6614978
vt -0.4391336 -0.3079445
vt 0.5855802 -0.6614979
vt 0.0855802 -0.6614979
vt 0.4391336 -0.3079445
vt -0.0855802 -0.161498
vt 0.08558026 -0.1614978
vt 0.2679732 -0.3079445
vt -0.2679731 -0.3079445
vt 0.4144198 -0.6614979
vt 0.2679731 -1.015051
vt -0.2679732 -1.015051
vt -0.08558023 -1.161498
vt 0.0855802 -1.161498
vt -0.4391336 -1.015051
vt 0.4391335 -1.015051
vt -1.588412 -0.6614979
vt 0.4144199 0.3385021
vt -1.588412 0.3385021
vt -1.588411 0.1411155
vt -1.588733 1.072541
vt 0.4144195 1.073233
vt 0.4147403 0.1418066
vt 0.9945421 -0.6614978
vt 0.9945421 0.3385021
vt 1.008289 -0.6614978
vt -0.9945421 -0.6614978
vt 1.008289 0.3385021
vt -0.9945421 0.3385021
vt 0.08558028 0.948468
vt 0.5855802 0.3385022
vt 0.3220158 -0.7988651
vt -0.8363312 -0.5568944
vt -0.623187 0.4634562
vt 0.08599716 0.9648499
vt 0.5351601 0.2214855
vt -1.881013 0.7381208
vt -1.881013 1.668856
vt 0.1218182 1.668856
vt 0.1218182 0.7381208
vt 1.013734 1.080413
vt 1.013734 0.1496784
vt -0.9890975 0.1496785
vt -0.9890975 1.080413
vt -0.06853002 0.9672986
vt -0.5816098 0.3428853
vt -0.08557665 1.048902
vt -0.6332639 0.2963654
vt 0.1770183 -1.008289
vt 0.1770183 0.9945421
vt 0.2406522 -1.008289
vt 0.2406522 0.9945421
vt 0.0851301 0.9945421
vt 0.0851301 -1.008289
vt 0.02149683 0.9945421
vt 0.02149683 -1.008289
vt 0.581611 0.3428865
vt 0.06853391 0.9672978
vt 0.6332651 0.2963664
vt 0.08558069 1.048902
vt 0.4104452 0.3428817
vt -0.102635 0.9672915
vt 0.4620981 0.2963619
vt 0.1026267 0.9672977
vt -0.4104508 0.3428863
vt -0.462104 0.2963665
vt -0.9618702 0.919843
vt -0.9618702 0.1311363
vt -1.110131 0.9198432
vt -1.110131 0.1311363
vt -2.029274 1.668856
vt -2.029274 0.7381212
vt 0.08513021 1.142802
vt 0.02149677 1.142802
vt 1.161994 0.1496786
vt 1.161994 1.080414
vt 1.873846 0.7650853
vt 1.873846 1.553792
vt 2.022106 0.7650853
vt 2.022106 1.553792
vt 0.2406523 1.142802
vt 0.1770184 1.142802
vt 1.041021 0.1312277
vt 1.040991 0.9199324
vt 1.170679 0.1312301
vt 1.170649 0.9199364
vt 0.02149594 -1.137967
vt 0.08512694 -1.137967
vt 0.1770186 -1.137949
vt 0.2406523 -1.137949
vt -1.11877 1.080459
vt -1.118786 0.1497242
vt -0.128987 1.55379
vt -0.1289857 0.7650833
vt -0.2586453 1.553793
vt -0.258644 0.7650828
vt 0.2514766 0.7381241
vt 0.2514744 1.668862

vn 8.973756E-06 0 1
vn -8.973754E-06 0 -1
vn 0 -1 0
vn 1 6.725011E-08 -8.579889E-06
vn -1 1.345007E-07 8.923084E-06
vn -8.155045E-06 0.4173061 -0.908766
vn 8.167328E-06 0.4173059 0.9087661
vn 7.303061E-06 -0.5811108 0.8138245
vn -7.303106E-06 -0.5811039 -0.8138294
vn -0.7071068 -0.7071068 2.171109E-06
vn 0.7071068 -0.7071068 2.203377E-06
vn 0.7071068 0.7071068 -2.015307E-06
vn 3.22578E-08 1 -2.804441E-06
vn -0.7071068 0.7071068 -1.983039E-06
vn 0.6720233 0.7405301 0
vn -0.6720234 0.7405299 0
vn -0.5040414 -0.8636795 0
vn 0.5040471 -0.8636762 0
vn 0.6274043 -0.7786937 -3.260938E-07
vn -0.6274045 -0.7786936 0

g Pleasurehouse
usemtl ProBuilderDefault
f 9/16/4 6/13/4 8/17/4
f 6/13/4 9/16/4 1/14/4
f 9/16/4 3/15/4 1/14/4
f 2/18/5 4/22/5 10/21/5
f 2/18/5 10/21/5 5/19/5
f 7/20/5 5/19/5 10/21/5
f 25/66/5 22/63/5 24/67/5
f 22/63/5 25/66/5 17/64/5
f 25/66/5 19/65/5 17/64/5
f 18/68/4 20/72/4 26/71/4
f 18/68/4 26/71/4 21/69/4
f 23/70/4 21/69/4 26/71/4
f 33/137/2 49/138/2 35/139/2
f 35/139/2 49/138/2 37/143/2
f 37/143/2 49/138/2 39/145/2
f 39/145/2 49/138/2 41/147/2
f 41/147/2 49/138/2 43/148/2
f 43/148/2 49/138/2 45/150/2
f 45/150/2 49/138/2 47/152/2
f 47/152/2 49/138/2 33/137/2
f 36/142/1 50/141/1 34/140/1
f 38/144/1 50/141/1 36/142/1
f 40/146/1 50/141/1 38/144/1
f 42/2/1 50/141/1 40/146/1
f 44/149/1 50/141/1 42/2/1
f 46/151/1 50/141/1 44/149/1
f 48/153/1 50/141/1 46/151/1
f 34/140/1 50/141/1 48/153/1
f 59/16/4 56/13/4 58/17/4
f 56/13/4 59/16/4 51/14/4
f 59/16/4 53/15/4 51/14/4
f 52/18/5 54/22/5 60/21/5
f 52/18/5 60/21/5 55/19/5
f 57/20/5 55/19/5 60/21/5
f 75/66/5 72/63/5 74/67/5
f 72/63/5 75/66/5 67/64/5
f 75/66/5 69/65/5 67/64/5
f 68/68/4 70/72/4 76/71/4
f 68/68/4 76/71/4 71/69/4
f 73/70/4 71/69/4 76/71/4
f 91/167/1 88/140/1 90/168/1
f 88/140/1 91/167/1 83/2/1
f 91/167/1 85/4/1 83/2/1
f 84/169/2 86/173/2 92/172/2
f 84/169/2 92/172/2 87/170/2
f 89/171/2 87/170/2 92/172/2
f 4/4/1 2/2/1 1/1/1
f 1/1/1 3/3/1 4/4/1
f 8/8/2 6/6/2 5/5/2
f 5/5/2 7/7/2 8/8/2
f 1/12/3 2/10/3 5/9/3
f 5/9/3 6/11/3 1/12/3
f 11/23/6 14/26/6 13/25/6
f 13/25/6 12/24/6 11/23/6
f 12/27/7 13/30/7 16/29/7
f 16/29/7 15/28/7 12/27/7
f 14/34/5 7/32/5 10/31/5
f 10/31/5 13/33/5 14/34/5
f 11/38/8 8/36/8 7/35/8
f 7/35/8 14/37/8 11/38/8
f 16/42/9 4/40/9 3/39/9
f 3/39/9 15/41/9 16/42/9
f 12/46/4 9/44/4 8/43/4
f 8/43/4 11/45/4 12/46/4
f 13/50/5 10/48/5 4/47/5
f 4/47/5 16/49/5 13/50/5
f 15/54/4 3/52/4 9/51/4
f 9/51/4 12/53/4 15/54/4
f 20/58/2 18/56/2 17/55/2
f 17/55/2 19/57/2 20/58/2
f 24/62/1 22/60/1 21/59/1
f 21/59/1 23/61/1 24/62/1
f 17/12/3 18/10/3 21/9/3
f 21/9/3 22/11/3 17/12/3
f 27/73/7 30/76/7 29/75/7
f 29/75/7 28/74/7 27/73/7
f 28/77/6 29/80/6 32/79/6
f 32/79/6 31/78/6 28/77/6
f 30/84/4 23/82/4 26/81/4
f 26/81/4 29/83/4 30/84/4
f 27/88/9 24/86/9 23/85/9
f 23/85/9 30/87/9 27/88/9
f 32/92/8 20/90/8 19/89/8
f 19/89/8 31/91/8 32/92/8
f 28/96/5 25/94/5 24/93/5
f 24/93/5 27/95/5 28/96/5
f 29/100/4 26/98/4 20/97/4
f 20/97/4 32/99/4 29/100/4
f 31/104/5 19/102/5 25/101/5
f 25/101/5 28/103/5 31/104/5
f 36/108/10 34/106/5 33/105/5
f 33/105/5 35/107/10 36/108/10
f 38/112/3 36/110/10 35/109/10
f 35/109/10 37/111/3 38/112/3
f 40/116/11 38/114/3 37/113/3
f 37/113/3 39/115/11 40/116/11
f 42/120/4 40/118/11 39/117/11
f 39/117/11 41/119/4 42/120/4
f 44/124/12 42/122/4 41/121/4
f 41/121/4 43/123/12 44/124/12
f 46/128/13 44/126/12 43/125/12
f 43/125/12 45/127/13 46/128/13
f 48/132/14 46/130/13 45/129/13
f 45/129/13 47/131/14 48/132/14
f 34/136/5 48/134/14 47/133/14
f 47/133/14 33/135/5 34/136/5
f 54/4/1 52/2/1 51/1/1
f 51/1/1 53/3/1 54/4/1
f 58/156/2 56/154/2 55/147/2
f 55/147/2 57/155/2 58/156/2
f 51/12/3 52/10/3 55/9/3
f 55/9/3 56/11/3 51/12/3
f 61/157/6 64/160/6 63/159/6
f 63/159/6 62/158/6 61/157/6
f 62/27/7 63/30/7 66/29/7
f 66/29/7 65/28/7 62/27/7
f 64/34/5 57/32/5 60/31/5
f 60/31/5 63/33/5 64/34/5
f 61/38/8 58/36/8 57/35/8
f 57/35/8 64/37/8 61/38/8
f 66/42/9 54/40/9 53/39/9
f 53/39/9 65/41/9 66/42/9
f 62/46/4 59/44/4 58/43/4
f 58/43/4 61/45/4 62/46/4
f 63/50/5 60/48/5 54/47/5
f 54/47/5 66/49/5 63/50/5
f 65/54/4 53/52/4 59/51/4
f 59/51/4 62/53/4 65/54/4
f 70/58/2 68/56/2 67/55/2
f 67/55/2 69/57/2 70/58/2
f 74/62/1 72/60/1 71/59/1
f 71/59/1 73/61/1 74/62/1
f 67/12/3 68/10/3 71/9/3
f 71/9/3 72/11/3 67/12/3
f 77/73/7 80/76/7 79/75/7
f 79/75/7 78/74/7 77/73/7
f 78/77/6 79/80/6 82/79/6
f 82/79/6 81/78/6 78/77/6
f 80/84/4 73/82/4 76/81/4
f 76/81/4 79/83/4 80/84/4
f 77/88/9 74/86/9 73/85/9
f 73/85/9 80/87/9 77/88/9
f 82/92/8 70/90/8 69/89/8
f 69/89/8 81/91/8 82/92/8
f 78/96/5 75/94/5 74/93/5
f 74/93/5 77/95/5 78/96/5
f 79/100/4 76/98/4 70/97/4
f 70/97/4 82/99/4 79/100/4
f 81/104/5 69/102/5 75/101/5
f 75/101/5 78/103/5 81/104/5
f 86/65/5 84/64/5 83/161/5
f 83/161/5 85/162/5 86/65/5
f 90/166/4 88/164/4 87/163/4
f 87/163/4 89/165/4 90/166/4
f 83/12/3 84/10/3 87/9/3
f 87/9/3 88/11/3 83/12/3
f 93/174/15 96/177/15 95/176/15
f 95/176/15 94/175/15 93/174/15
f 94/178/16 95/181/16 98/180/16
f 98/180/16 97/179/16 94/178/16
f 102/185/2 100/183/2 99/182/2
f 99/182/2 101/184/2 102/185/2
f 93/189/17 90/187/17 89/186/17
f 89/186/17 96/188/17 93/189/17
f 98/193/18 86/191/18 85/190/18
f 85/190/18 97/192/18 98/193/18
f 106/197/1 104/195/1 103/194/1
f 103/194/1 105/196/1 106/197/1
f 101/184/2 99/199/2 107/198/2
f 107/198/2 108/200/2 101/184/2
f 110/203/1 109/202/1 104/201/1
f 104/201/1 106/197/1 110/203/1
f 109/207/19 85/205/19 91/204/19
f 91/204/19 104/206/19 109/207/19
f 105/209/15 93/174/15 94/175/15
f 94/175/15 106/208/15 105/209/15
f 110/211/18 97/192/18 85/190/18
f 85/190/18 109/210/18 110/211/18
f 106/213/16 94/178/16 97/179/16
f 97/179/16 110/212/16 106/213/16
f 104/217/20 91/215/20 90/214/20
f 90/214/20 103/216/20 104/217/20
f 103/219/17 90/187/17 93/189/17
f 93/189/17 105/218/17 103/219/17
f 99/223/19 92/221/19 86/220/19
f 86/220/19 107/222/19 99/223/19
f 107/225/18 86/191/18 98/193/18
f 98/193/18 108/224/18 107/225/18
f 102/227/17 96/188/17 89/186/17
f 89/186/17 100/226/17 102/227/17
f 108/229/16 98/180/16 95/181/16
f 95/181/16 101/228/16 108/229/16
f 100/233/20 89/231/20 92/230/20
f 92/230/20 99/232/20 100/233/20
f 101/235/15 95/176/15 96/177/15
f 96/177/15 102/234/15 101/235/15

